<mxfile host="app.diagrams.net" modified="2023-04-30T06:41:01.898Z" agent="Mozilla/5.0 (Windows NT 10.0; Win64; x64) AppleWebKit/537.36 (KHTML, like Gecko) Chrome/112.0.0.0 Safari/537.36" etag="-AAVQ4UH_2_FL1AvnMa1" version="21.2.2" type="device">
  <diagram name="Page-1" id="XKLMeH5XUYuhGOqOmfYf">
    <mxGraphModel dx="1658" dy="747" grid="1" gridSize="10" guides="1" tooltips="1" connect="1" arrows="1" fold="1" page="1" pageScale="1" pageWidth="850" pageHeight="1100" math="0" shadow="0">
      <root>
        <mxCell id="0" />
        <mxCell id="1" parent="0" />
        <mxCell id="NKMg_Qq9wsN5q69OQDUc-63" value="" style="edgeStyle=orthogonalEdgeStyle;rounded=0;orthogonalLoop=1;jettySize=auto;html=1;" parent="1" source="NKMg_Qq9wsN5q69OQDUc-8" target="NKMg_Qq9wsN5q69OQDUc-12" edge="1">
          <mxGeometry relative="1" as="geometry" />
        </mxCell>
        <mxCell id="NKMg_Qq9wsN5q69OQDUc-8" value="Set Up Const" style="shape=parallelogram;perimeter=parallelogramPerimeter;whiteSpace=wrap;html=1;fixedSize=1;" parent="1" vertex="1">
          <mxGeometry x="100" y="100" width="120" height="30" as="geometry" />
        </mxCell>
        <mxCell id="NKMg_Qq9wsN5q69OQDUc-9" value="" style="endArrow=classic;html=1;rounded=0;" parent="1" edge="1">
          <mxGeometry width="50" height="50" relative="1" as="geometry">
            <mxPoint x="159.5" y="80" as="sourcePoint" />
            <mxPoint x="160" y="100" as="targetPoint" />
          </mxGeometry>
        </mxCell>
        <mxCell id="NKMg_Qq9wsN5q69OQDUc-10" value="Create Headers Exchange" style="rounded=0;whiteSpace=wrap;html=1;" parent="1" vertex="1">
          <mxGeometry x="100" y="150" width="120" height="30" as="geometry" />
        </mxCell>
        <mxCell id="NKMg_Qq9wsN5q69OQDUc-1" value="Data Capture Service" style="rounded=0;whiteSpace=wrap;html=1;" parent="1" vertex="1">
          <mxGeometry x="100" y="20" width="120" height="60" as="geometry" />
        </mxCell>
        <mxCell id="NKMg_Qq9wsN5q69OQDUc-3" value="Main Processing&amp;nbsp;Service" style="rounded=0;whiteSpace=wrap;html=1;" parent="1" vertex="1">
          <mxGeometry x="570" y="20" width="140" height="60" as="geometry" />
        </mxCell>
        <mxCell id="NKMg_Qq9wsN5q69OQDUc-11" value="" style="endArrow=classic;html=1;rounded=0;" parent="1" edge="1">
          <mxGeometry width="50" height="50" relative="1" as="geometry">
            <mxPoint x="159.75" y="130" as="sourcePoint" />
            <mxPoint x="160.25" y="150" as="targetPoint" />
          </mxGeometry>
        </mxCell>
        <mxCell id="NKMg_Qq9wsN5q69OQDUc-12" value="Start watching Directory" style="rounded=0;whiteSpace=wrap;html=1;" parent="1" vertex="1">
          <mxGeometry x="100" y="200" width="120" height="30" as="geometry" />
        </mxCell>
        <mxCell id="NKMg_Qq9wsN5q69OQDUc-13" value="" style="endArrow=classic;html=1;rounded=0;" parent="1" edge="1">
          <mxGeometry width="50" height="50" relative="1" as="geometry">
            <mxPoint x="159.75" y="180" as="sourcePoint" />
            <mxPoint x="160.25" y="200" as="targetPoint" />
          </mxGeometry>
        </mxCell>
        <mxCell id="NKMg_Qq9wsN5q69OQDUc-14" value="Created File Handler" style="rounded=0;whiteSpace=wrap;html=1;" parent="1" vertex="1">
          <mxGeometry x="100" y="250" width="120" height="30" as="geometry" />
        </mxCell>
        <mxCell id="NKMg_Qq9wsN5q69OQDUc-16" value="" style="endArrow=classic;html=1;rounded=0;" parent="1" edge="1">
          <mxGeometry width="50" height="50" relative="1" as="geometry">
            <mxPoint x="159.75" y="230" as="sourcePoint" />
            <mxPoint x="160.25" y="250" as="targetPoint" />
          </mxGeometry>
        </mxCell>
        <mxCell id="NKMg_Qq9wsN5q69OQDUc-17" value="Created file is *.pdf" style="rhombus;whiteSpace=wrap;html=1;" parent="1" vertex="1">
          <mxGeometry x="100" y="300" width="120" height="80" as="geometry" />
        </mxCell>
        <mxCell id="NKMg_Qq9wsN5q69OQDUc-18" value="" style="endArrow=classic;html=1;rounded=0;" parent="1" edge="1">
          <mxGeometry width="50" height="50" relative="1" as="geometry">
            <mxPoint x="159.75" y="280" as="sourcePoint" />
            <mxPoint x="160.25" y="300" as="targetPoint" />
          </mxGeometry>
        </mxCell>
        <mxCell id="NKMg_Qq9wsN5q69OQDUc-20" value="" style="endArrow=classic;html=1;rounded=0;" parent="1" edge="1">
          <mxGeometry width="50" height="50" relative="1" as="geometry">
            <mxPoint x="160" y="380" as="sourcePoint" />
            <mxPoint x="160" y="410" as="targetPoint" />
          </mxGeometry>
        </mxCell>
        <mxCell id="NKMg_Qq9wsN5q69OQDUc-21" value="Create Headers Exchange" style="rounded=0;whiteSpace=wrap;html=1;" parent="1" vertex="1">
          <mxGeometry x="100" y="460" width="120" height="30" as="geometry" />
        </mxCell>
        <mxCell id="NKMg_Qq9wsN5q69OQDUc-22" value="Yes" style="text;html=1;strokeColor=none;fillColor=none;align=center;verticalAlign=middle;whiteSpace=wrap;rounded=0;" parent="1" vertex="1">
          <mxGeometry x="170" y="390" width="20" height="10" as="geometry" />
        </mxCell>
        <mxCell id="NKMg_Qq9wsN5q69OQDUc-23" value="" style="endArrow=classic;html=1;rounded=0;" parent="1" edge="1">
          <mxGeometry width="50" height="50" relative="1" as="geometry">
            <mxPoint x="159.86" y="490" as="sourcePoint" />
            <mxPoint x="160" y="510" as="targetPoint" />
          </mxGeometry>
        </mxCell>
        <mxCell id="NKMg_Qq9wsN5q69OQDUc-24" value="&lt;font style=&quot;font-size: 11px;&quot;&gt;File is fully available&lt;/font&gt;" style="rhombus;whiteSpace=wrap;html=1;" parent="1" vertex="1">
          <mxGeometry x="100" y="510" width="120" height="80" as="geometry" />
        </mxCell>
        <mxCell id="NKMg_Qq9wsN5q69OQDUc-25" value="Message Broker&lt;br&gt;(RabbitMQ)" style="rounded=0;whiteSpace=wrap;html=1;" parent="1" vertex="1">
          <mxGeometry x="355" y="200" width="140" height="60" as="geometry" />
        </mxCell>
        <mxCell id="NKMg_Qq9wsN5q69OQDUc-27" value="" style="endArrow=classic;html=1;rounded=0;" parent="1" edge="1">
          <mxGeometry width="50" height="50" relative="1" as="geometry">
            <mxPoint x="159.86" y="590" as="sourcePoint" />
            <mxPoint x="160" y="610" as="targetPoint" />
          </mxGeometry>
        </mxCell>
        <mxCell id="NKMg_Qq9wsN5q69OQDUc-28" value="Process Exception" style="rounded=0;whiteSpace=wrap;html=1;" parent="1" vertex="1">
          <mxGeometry x="100" y="610" width="120" height="30" as="geometry" />
        </mxCell>
        <mxCell id="NKMg_Qq9wsN5q69OQDUc-31" value="" style="endArrow=none;html=1;rounded=0;" parent="1" edge="1">
          <mxGeometry width="50" height="50" relative="1" as="geometry">
            <mxPoint x="160" y="710" as="sourcePoint" />
            <mxPoint x="160" y="690" as="targetPoint" />
          </mxGeometry>
        </mxCell>
        <mxCell id="NKMg_Qq9wsN5q69OQDUc-32" value="" style="endArrow=none;html=1;rounded=0;" parent="1" edge="1">
          <mxGeometry width="50" height="50" relative="1" as="geometry">
            <mxPoint x="80" y="710" as="sourcePoint" />
            <mxPoint x="160" y="710" as="targetPoint" />
          </mxGeometry>
        </mxCell>
        <mxCell id="NKMg_Qq9wsN5q69OQDUc-33" value="" style="endArrow=none;html=1;rounded=0;" parent="1" edge="1">
          <mxGeometry width="50" height="50" relative="1" as="geometry">
            <mxPoint x="80" y="710" as="sourcePoint" />
            <mxPoint x="80" y="550" as="targetPoint" />
          </mxGeometry>
        </mxCell>
        <mxCell id="NKMg_Qq9wsN5q69OQDUc-34" value="" style="endArrow=classic;html=1;rounded=0;entryX=0;entryY=0.5;entryDx=0;entryDy=0;" parent="1" target="NKMg_Qq9wsN5q69OQDUc-24" edge="1">
          <mxGeometry width="50" height="50" relative="1" as="geometry">
            <mxPoint x="80.00000000000001" y="550" as="sourcePoint" />
            <mxPoint x="90" y="570" as="targetPoint" />
          </mxGeometry>
        </mxCell>
        <mxCell id="NKMg_Qq9wsN5q69OQDUc-35" value="No" style="text;html=1;strokeColor=none;fillColor=none;align=center;verticalAlign=middle;whiteSpace=wrap;rounded=0;" parent="1" vertex="1">
          <mxGeometry x="170" y="590" width="20" height="10" as="geometry" />
        </mxCell>
        <mxCell id="NKMg_Qq9wsN5q69OQDUc-36" value="" style="endArrow=classic;html=1;rounded=0;" parent="1" edge="1">
          <mxGeometry width="50" height="50" relative="1" as="geometry">
            <mxPoint x="220" y="549.8" as="sourcePoint" />
            <mxPoint x="250" y="550" as="targetPoint" />
          </mxGeometry>
        </mxCell>
        <mxCell id="NKMg_Qq9wsN5q69OQDUc-38" value="Set Up IModel channel" style="shape=parallelogram;perimeter=parallelogramPerimeter;whiteSpace=wrap;html=1;fixedSize=1;" parent="1" vertex="1">
          <mxGeometry x="100" y="410" width="120" height="30" as="geometry" />
        </mxCell>
        <mxCell id="NKMg_Qq9wsN5q69OQDUc-39" value="" style="endArrow=classic;html=1;rounded=0;" parent="1" edge="1">
          <mxGeometry width="50" height="50" relative="1" as="geometry">
            <mxPoint x="159.8" y="440" as="sourcePoint" />
            <mxPoint x="160" y="460" as="targetPoint" />
          </mxGeometry>
        </mxCell>
        <mxCell id="NKMg_Qq9wsN5q69OQDUc-40" value="&lt;font style=&quot;font-size: 11px;&quot;&gt;File is bigger than 100 Mb&lt;/font&gt;" style="rhombus;whiteSpace=wrap;html=1;" parent="1" vertex="1">
          <mxGeometry x="250" y="505" width="150" height="90" as="geometry" />
        </mxCell>
        <mxCell id="NKMg_Qq9wsN5q69OQDUc-41" value="Publish Message" style="rounded=0;whiteSpace=wrap;html=1;" parent="1" vertex="1">
          <mxGeometry x="265" y="450" width="120" height="30" as="geometry" />
        </mxCell>
        <mxCell id="NKMg_Qq9wsN5q69OQDUc-42" value="" style="endArrow=classic;html=1;rounded=0;exitX=0.5;exitY=0;exitDx=0;exitDy=0;" parent="1" source="NKMg_Qq9wsN5q69OQDUc-40" edge="1">
          <mxGeometry width="50" height="50" relative="1" as="geometry">
            <mxPoint x="324.86" y="500" as="sourcePoint" />
            <mxPoint x="324.86" y="480" as="targetPoint" />
          </mxGeometry>
        </mxCell>
        <mxCell id="NKMg_Qq9wsN5q69OQDUc-43" value="" style="endArrow=none;html=1;rounded=0;" parent="1" edge="1">
          <mxGeometry width="50" height="50" relative="1" as="geometry">
            <mxPoint x="324.71000000000004" y="450" as="sourcePoint" />
            <mxPoint x="325" y="230" as="targetPoint" />
          </mxGeometry>
        </mxCell>
        <mxCell id="NKMg_Qq9wsN5q69OQDUc-44" value="" style="endArrow=classic;html=1;rounded=0;" parent="1" edge="1">
          <mxGeometry width="50" height="50" relative="1" as="geometry">
            <mxPoint x="325" y="229.99999999999994" as="sourcePoint" />
            <mxPoint x="355" y="230.2" as="targetPoint" />
          </mxGeometry>
        </mxCell>
        <mxCell id="NKMg_Qq9wsN5q69OQDUc-45" value="Yes" style="text;html=1;strokeColor=none;fillColor=none;align=center;verticalAlign=middle;whiteSpace=wrap;rounded=0;" parent="1" vertex="1">
          <mxGeometry x="220" y="530" width="20" height="10" as="geometry" />
        </mxCell>
        <mxCell id="NKMg_Qq9wsN5q69OQDUc-46" value="No" style="text;html=1;strokeColor=none;fillColor=none;align=center;verticalAlign=middle;whiteSpace=wrap;rounded=0;" parent="1" vertex="1">
          <mxGeometry x="335" y="490" width="20" height="10" as="geometry" />
        </mxCell>
        <mxCell id="NKMg_Qq9wsN5q69OQDUc-47" value="" style="endArrow=classic;html=1;rounded=0;" parent="1" edge="1">
          <mxGeometry width="50" height="50" relative="1" as="geometry">
            <mxPoint x="400" y="549.8" as="sourcePoint" />
            <mxPoint x="430" y="550" as="targetPoint" />
          </mxGeometry>
        </mxCell>
        <mxCell id="NKMg_Qq9wsN5q69OQDUc-48" value="Yes" style="text;html=1;strokeColor=none;fillColor=none;align=center;verticalAlign=middle;whiteSpace=wrap;rounded=0;" parent="1" vertex="1">
          <mxGeometry x="400" y="530" width="20" height="10" as="geometry" />
        </mxCell>
        <mxCell id="NKMg_Qq9wsN5q69OQDUc-49" value="File Partitioning" style="rounded=0;whiteSpace=wrap;html=1;" parent="1" vertex="1">
          <mxGeometry x="430" y="535" width="120" height="30" as="geometry" />
        </mxCell>
        <mxCell id="NKMg_Qq9wsN5q69OQDUc-50" value="Publish File Chunks as Messages" style="rounded=0;whiteSpace=wrap;html=1;" parent="1" vertex="1">
          <mxGeometry x="430" y="475" width="120" height="30" as="geometry" />
        </mxCell>
        <mxCell id="NKMg_Qq9wsN5q69OQDUc-51" value="" style="endArrow=classic;html=1;rounded=0;exitX=0.5;exitY=0;exitDx=0;exitDy=0;" parent="1" source="NKMg_Qq9wsN5q69OQDUc-49" edge="1">
          <mxGeometry width="50" height="50" relative="1" as="geometry">
            <mxPoint x="490" y="530" as="sourcePoint" />
            <mxPoint x="489.86" y="505" as="targetPoint" />
          </mxGeometry>
        </mxCell>
        <mxCell id="NKMg_Qq9wsN5q69OQDUc-52" value="" style="endArrow=none;html=1;rounded=0;" parent="1" edge="1">
          <mxGeometry width="50" height="50" relative="1" as="geometry">
            <mxPoint x="489.76" y="475" as="sourcePoint" />
            <mxPoint x="490" y="420" as="targetPoint" />
          </mxGeometry>
        </mxCell>
        <mxCell id="NKMg_Qq9wsN5q69OQDUc-53" value="" style="endArrow=none;html=1;rounded=0;" parent="1" edge="1">
          <mxGeometry width="50" height="50" relative="1" as="geometry">
            <mxPoint x="430" y="420" as="sourcePoint" />
            <mxPoint x="490" y="420" as="targetPoint" />
          </mxGeometry>
        </mxCell>
        <mxCell id="NKMg_Qq9wsN5q69OQDUc-54" value="" style="endArrow=classic;html=1;rounded=0;" parent="1" edge="1">
          <mxGeometry width="50" height="50" relative="1" as="geometry">
            <mxPoint x="430" y="420" as="sourcePoint" />
            <mxPoint x="429.52" y="260" as="targetPoint" />
          </mxGeometry>
        </mxCell>
        <mxCell id="NKMg_Qq9wsN5q69OQDUc-55" value="Wait for 1 sec." style="rounded=0;whiteSpace=wrap;html=1;" parent="1" vertex="1">
          <mxGeometry x="100" y="660" width="120" height="30" as="geometry" />
        </mxCell>
        <mxCell id="NKMg_Qq9wsN5q69OQDUc-56" value="" style="endArrow=classic;html=1;rounded=0;" parent="1" edge="1">
          <mxGeometry width="50" height="50" relative="1" as="geometry">
            <mxPoint x="159.86" y="640" as="sourcePoint" />
            <mxPoint x="160" y="660" as="targetPoint" />
          </mxGeometry>
        </mxCell>
        <mxCell id="NKMg_Qq9wsN5q69OQDUc-57" value="Set Up Const" style="shape=parallelogram;perimeter=parallelogramPerimeter;whiteSpace=wrap;html=1;fixedSize=1;" parent="1" vertex="1">
          <mxGeometry x="580" y="100" width="120" height="30" as="geometry" />
        </mxCell>
        <mxCell id="NKMg_Qq9wsN5q69OQDUc-58" value="" style="endArrow=classic;html=1;rounded=0;" parent="1" edge="1">
          <mxGeometry width="50" height="50" relative="1" as="geometry">
            <mxPoint x="639.5" y="80" as="sourcePoint" />
            <mxPoint x="640" y="100" as="targetPoint" />
          </mxGeometry>
        </mxCell>
        <mxCell id="NKMg_Qq9wsN5q69OQDUc-59" value="" style="endArrow=classic;html=1;rounded=0;" parent="1" edge="1">
          <mxGeometry width="50" height="50" relative="1" as="geometry">
            <mxPoint x="640" y="130" as="sourcePoint" />
            <mxPoint x="640" y="150" as="targetPoint" />
          </mxGeometry>
        </mxCell>
        <mxCell id="NKMg_Qq9wsN5q69OQDUc-60" value="Set Up IModel channel" style="shape=parallelogram;perimeter=parallelogramPerimeter;whiteSpace=wrap;html=1;fixedSize=1;" parent="1" vertex="1">
          <mxGeometry x="580" y="150" width="120" height="30" as="geometry" />
        </mxCell>
        <mxCell id="NKMg_Qq9wsN5q69OQDUc-64" value="Declare Queue and&lt;br&gt;Bind to Exchange" style="rounded=0;whiteSpace=wrap;html=1;" parent="1" vertex="1">
          <mxGeometry x="580" y="200" width="120" height="30" as="geometry" />
        </mxCell>
        <mxCell id="NKMg_Qq9wsN5q69OQDUc-65" value="" style="endArrow=classic;html=1;rounded=0;" parent="1" edge="1">
          <mxGeometry width="50" height="50" relative="1" as="geometry">
            <mxPoint x="639.75" y="180" as="sourcePoint" />
            <mxPoint x="640.25" y="200" as="targetPoint" />
          </mxGeometry>
        </mxCell>
        <mxCell id="NKMg_Qq9wsN5q69OQDUc-66" value="Consumer&#39;s Received Messages&amp;nbsp; Handler" style="rounded=0;whiteSpace=wrap;html=1;" parent="1" vertex="1">
          <mxGeometry x="580" y="250" width="120" height="40" as="geometry" />
        </mxCell>
        <mxCell id="NKMg_Qq9wsN5q69OQDUc-67" value="" style="endArrow=classic;html=1;rounded=0;" parent="1" edge="1">
          <mxGeometry width="50" height="50" relative="1" as="geometry">
            <mxPoint x="639.75" y="230" as="sourcePoint" />
            <mxPoint x="640.25" y="250" as="targetPoint" />
          </mxGeometry>
        </mxCell>
        <mxCell id="NKMg_Qq9wsN5q69OQDUc-68" value="" style="endArrow=none;html=1;rounded=0;" parent="1" edge="1">
          <mxGeometry width="50" height="50" relative="1" as="geometry">
            <mxPoint x="495" y="229.72" as="sourcePoint" />
            <mxPoint x="550" y="230" as="targetPoint" />
          </mxGeometry>
        </mxCell>
        <mxCell id="NKMg_Qq9wsN5q69OQDUc-69" value="" style="endArrow=none;html=1;rounded=0;" parent="1" edge="1">
          <mxGeometry width="50" height="50" relative="1" as="geometry">
            <mxPoint x="550" y="270" as="sourcePoint" />
            <mxPoint x="550.24" y="230" as="targetPoint" />
          </mxGeometry>
        </mxCell>
        <mxCell id="NKMg_Qq9wsN5q69OQDUc-70" value="" style="endArrow=classic;html=1;rounded=0;" parent="1" edge="1">
          <mxGeometry width="50" height="50" relative="1" as="geometry">
            <mxPoint x="550" y="269.79999999999995" as="sourcePoint" />
            <mxPoint x="580" y="270" as="targetPoint" />
          </mxGeometry>
        </mxCell>
        <mxCell id="NKMg_Qq9wsN5q69OQDUc-72" value="&lt;font style=&quot;font-size: 11px;&quot;&gt;Message is chunk of big File (checking headers)&lt;/font&gt;" style="rhombus;whiteSpace=wrap;html=1;" parent="1" vertex="1">
          <mxGeometry x="550" y="320" width="180" height="100" as="geometry" />
        </mxCell>
        <mxCell id="NKMg_Qq9wsN5q69OQDUc-73" value="" style="endArrow=classic;html=1;rounded=0;entryX=0.5;entryY=0;entryDx=0;entryDy=0;" parent="1" target="NKMg_Qq9wsN5q69OQDUc-72" edge="1">
          <mxGeometry width="50" height="50" relative="1" as="geometry">
            <mxPoint x="639.75" y="290" as="sourcePoint" />
            <mxPoint x="640.25" y="310" as="targetPoint" />
          </mxGeometry>
        </mxCell>
        <mxCell id="NKMg_Qq9wsN5q69OQDUc-75" value="No" style="text;html=1;strokeColor=none;fillColor=none;align=center;verticalAlign=middle;whiteSpace=wrap;rounded=0;" parent="1" vertex="1">
          <mxGeometry x="730" y="350" width="20" height="10" as="geometry" />
        </mxCell>
        <mxCell id="NKMg_Qq9wsN5q69OQDUc-86" value="" style="edgeStyle=orthogonalEdgeStyle;rounded=0;orthogonalLoop=1;jettySize=auto;html=1;" parent="1" source="NKMg_Qq9wsN5q69OQDUc-76" target="NKMg_Qq9wsN5q69OQDUc-83" edge="1">
          <mxGeometry relative="1" as="geometry" />
        </mxCell>
        <mxCell id="NKMg_Qq9wsN5q69OQDUc-76" value="Process Whole File" style="rounded=0;whiteSpace=wrap;html=1;" parent="1" vertex="1">
          <mxGeometry x="720" y="420" width="120" height="30" as="geometry" />
        </mxCell>
        <mxCell id="NKMg_Qq9wsN5q69OQDUc-77" value="" style="endArrow=none;html=1;rounded=0;exitX=1;exitY=0.5;exitDx=0;exitDy=0;" parent="1" source="NKMg_Qq9wsN5q69OQDUc-72" edge="1">
          <mxGeometry width="50" height="50" relative="1" as="geometry">
            <mxPoint x="750" y="369.58000000000004" as="sourcePoint" />
            <mxPoint x="780" y="370" as="targetPoint" />
          </mxGeometry>
        </mxCell>
        <mxCell id="NKMg_Qq9wsN5q69OQDUc-78" value="" style="endArrow=classic;html=1;rounded=0;entryX=0.5;entryY=0;entryDx=0;entryDy=0;" parent="1" target="NKMg_Qq9wsN5q69OQDUc-76" edge="1">
          <mxGeometry width="50" height="50" relative="1" as="geometry">
            <mxPoint x="779.76" y="370" as="sourcePoint" />
            <mxPoint x="780.01" y="400" as="targetPoint" />
          </mxGeometry>
        </mxCell>
        <mxCell id="NKMg_Qq9wsN5q69OQDUc-79" value="" style="endArrow=classic;html=1;rounded=0;" parent="1" edge="1">
          <mxGeometry width="50" height="50" relative="1" as="geometry">
            <mxPoint x="640" y="420" as="sourcePoint" />
            <mxPoint x="640.14" y="440" as="targetPoint" />
          </mxGeometry>
        </mxCell>
        <mxCell id="NKMg_Qq9wsN5q69OQDUc-80" value="Yes" style="text;html=1;strokeColor=none;fillColor=none;align=center;verticalAlign=middle;whiteSpace=wrap;rounded=0;" parent="1" vertex="1">
          <mxGeometry x="650.14" y="420" width="20" height="10" as="geometry" />
        </mxCell>
        <mxCell id="NKMg_Qq9wsN5q69OQDUc-81" value="Process File Chunk" style="rounded=0;whiteSpace=wrap;html=1;" parent="1" vertex="1">
          <mxGeometry x="590" y="440" width="110" height="30" as="geometry" />
        </mxCell>
        <mxCell id="NKMg_Qq9wsN5q69OQDUc-83" value="Save in Target Directory" style="rounded=0;whiteSpace=wrap;html=1;" parent="1" vertex="1">
          <mxGeometry x="720" y="470" width="120" height="30" as="geometry" />
        </mxCell>
        <mxCell id="NKMg_Qq9wsN5q69OQDUc-84" value="" style="endArrow=classic;html=1;rounded=0;" parent="1" edge="1">
          <mxGeometry width="50" height="50" relative="1" as="geometry">
            <mxPoint x="779.8" y="450" as="sourcePoint" />
            <mxPoint x="779.94" y="470" as="targetPoint" />
          </mxGeometry>
        </mxCell>
        <mxCell id="NKMg_Qq9wsN5q69OQDUc-85" value="Save in Target Directory" style="rounded=0;whiteSpace=wrap;html=1;" parent="1" vertex="1">
          <mxGeometry x="590" y="490" width="120" height="30" as="geometry" />
        </mxCell>
        <mxCell id="NKMg_Qq9wsN5q69OQDUc-88" value="" style="endArrow=classic;html=1;rounded=0;" parent="1" edge="1">
          <mxGeometry width="50" height="50" relative="1" as="geometry">
            <mxPoint x="639.8299999999999" y="470" as="sourcePoint" />
            <mxPoint x="639.97" y="490" as="targetPoint" />
          </mxGeometry>
        </mxCell>
        <mxCell id="NKMg_Qq9wsN5q69OQDUc-89" value="" style="endArrow=classic;html=1;rounded=0;edgeStyle=orthogonalEdgeStyle;entryX=0.75;entryY=1;entryDx=0;entryDy=0;" parent="1" target="NKMg_Qq9wsN5q69OQDUc-25" edge="1">
          <mxGeometry width="50" height="50" relative="1" as="geometry">
            <mxPoint x="780" y="580" as="sourcePoint" />
            <mxPoint x="570" y="540" as="targetPoint" />
            <Array as="points">
              <mxPoint x="560" y="410" />
              <mxPoint x="460" y="410" />
            </Array>
          </mxGeometry>
        </mxCell>
        <mxCell id="NKMg_Qq9wsN5q69OQDUc-90" value="" style="endArrow=classic;html=1;rounded=0;edgeStyle=orthogonalEdgeStyle;entryX=0.75;entryY=1;entryDx=0;entryDy=0;exitX=0;exitY=0.5;exitDx=0;exitDy=0;" parent="1" source="NKMg_Qq9wsN5q69OQDUc-91" edge="1">
          <mxGeometry width="50" height="50" relative="1" as="geometry">
            <mxPoint x="580" y="550" as="sourcePoint" />
            <mxPoint x="480" y="260" as="targetPoint" />
            <Array as="points">
              <mxPoint x="580" y="550" />
              <mxPoint x="580" y="400" />
              <mxPoint x="480" y="400" />
            </Array>
          </mxGeometry>
        </mxCell>
        <mxCell id="NKMg_Qq9wsN5q69OQDUc-91" value="Notify Delivery&lt;br style=&quot;border-color: var(--border-color);&quot;&gt;(Colear Message)" style="rounded=0;whiteSpace=wrap;html=1;" parent="1" vertex="1">
          <mxGeometry x="590" y="535" width="120" height="30" as="geometry" />
        </mxCell>
        <mxCell id="NKMg_Qq9wsN5q69OQDUc-92" value="Notify Delivery&lt;br&gt;(Colear Message)" style="rounded=0;whiteSpace=wrap;html=1;" parent="1" vertex="1">
          <mxGeometry x="720" y="520" width="120" height="30" as="geometry" />
        </mxCell>
        <mxCell id="NKMg_Qq9wsN5q69OQDUc-93" value="" style="endArrow=classic;html=1;rounded=0;" parent="1" edge="1">
          <mxGeometry width="50" height="50" relative="1" as="geometry">
            <mxPoint x="779.8599999999999" y="500" as="sourcePoint" />
            <mxPoint x="780" y="520" as="targetPoint" />
          </mxGeometry>
        </mxCell>
        <mxCell id="NKMg_Qq9wsN5q69OQDUc-94" value="" style="endArrow=classic;html=1;rounded=0;" parent="1" edge="1">
          <mxGeometry width="50" height="50" relative="1" as="geometry">
            <mxPoint x="640" y="520" as="sourcePoint" />
            <mxPoint x="640" y="535" as="targetPoint" />
          </mxGeometry>
        </mxCell>
        <mxCell id="NKMg_Qq9wsN5q69OQDUc-95" value="" style="endArrow=none;html=1;rounded=0;" parent="1" edge="1">
          <mxGeometry width="50" height="50" relative="1" as="geometry">
            <mxPoint x="780" y="580" as="sourcePoint" />
            <mxPoint x="780.04" y="550" as="targetPoint" />
          </mxGeometry>
        </mxCell>
      </root>
    </mxGraphModel>
  </diagram>
</mxfile>
